:version 1.10
:name ASF
:units
  mass 1
  length 1
  angle deg
:documentation
  ASF file generated by Kaydara
:root
  axis xyz
  order  tx ty tz rx ry rz
  position 0 0 0
  orientation 0 0 0
:bonedata
  begin
    id 1
    name SpineDummy
    direction 0.999998 -0.00179978 1.38929e-006
    length 3.60008
    axis 0 0 0 xyz
  end
  begin
    id 2
    name Spine
    direction 0.964365 0.262802 0.0305839
    length 8.13928
    axis 1.33928 -1.75354 15.2838 xyz
    dof rx ry rz
  end
  begin
    id 3
    name Spine1
    direction 0.811168 0.572065 0.12144
    length 7.14954
    axis 2.2224 -6.9761 35.2157 xyz
    dof rx ry rz
  end
  begin
    id 4
    name Neck
    direction 0 0 0
    length 0
    axis 2.2224 -6.9761 35.2157 xyz
    dof rx ry rz
  end
  begin
    id 5
    name HeadDummy
    direction 0.810939 0.572387 0.121455
    length 3.55534
    axis 2.2224 -6.9761 35.2157 xyz
  end
  begin
    id 6
    name Head
    direction 0.998226 -0.000232542 0.0595419
    length 7.35666
    axis -3.03688 -3.41352 -0.0133467 xyz
    dof rx ry rz
  end
  begin
    id 7
    name R_ClavicleDummy
    direction 0.531669 -0.194489 -0.824319
    length 2.49392
    axis 2.2224 -6.9761 35.2157 xyz
  end
  begin
    id 8
    name R_Clavicle
    direction -0.155119 0.0480802 -0.986725
    length 4.485
    axis -54.2764 80.6538 162.779 xyz
    dof rx ry rz
  end
  begin
    id 9
    name R_UpperArm
    direction -0.955567 0.200068 -0.216484
    length 10.1122
    axis -72.9943 12.5026 168.175 xyz
    dof rx ry rz
  end
  begin
    id 10
    name R_Forearm
    direction -0.61433 0.385743 0.688332
    length 9.39148
    axis -117.015 -43.4982 147.875 xyz
    dof rx ry rz
  end
  begin
    id 11
    name R_Hand
    direction -0.699429 0.0170333 0.714499
    length 3.66324
    axis -45.0303 -36.7097 175.478 xyz
    dof rx ry rz
  end
  begin
    id 12
    name L_ClavicleDummy
    direction 0.40287 -0.36502 0.839319
    length 2.49392
    axis 2.2224 -6.9761 35.2157 xyz
  end
  begin
    id 13
    name L_Clavicle
    direction -0.231271 -0.0726419 0.970174
    length 4.485
    axis 18.4357 -75.9711 -162.563 xyz
    dof rx ry rz
  end
  begin
    id 14
    name L_UpperArm
    direction -0.917494 0.144359 0.370629
    length 10.1122
    axis 56.0417 -21.7544 171.058 xyz
    dof rx ry rz
  end
  begin
    id 15
    name L_Forearm
    direction -0.496786 0.615074 -0.612281
    length 9.39148
    axis 89.8094 37.7546 128.927 xyz
    dof rx ry rz
  end
  begin
    id 16
    name L_Hand
    direction -0.409932 0.64962 -0.640274
    length 3.66324
    axis -0.424369 32.133 128.52 xyz
    dof rx ry rz
  end
  begin
    id 17
    name L_ThighDummy
    direction -1.84081e-006 1.87549e-006 1
    length 3.13049
    axis 0 0 0 xyz
  end
  begin
    id 18
    name L_Thigh
    direction -0.947739 0.307978 0.083308
    length 17.9961
    axis 173.219 -4.77873 161.998 xyz
    dof rx ry rz
  end
  begin
    id 19
    name L_Calf
    direction -0.728814 -0.684427 0.0197583
    length 13.3367
    axis 167.331 -1.13214 -136.799 xyz
    dof rx ry rz
  end
  begin
    id 20
    name L_Foot
    direction -0.9028 0.418719 0.0981191
    length 5.8674
    axis 163.436 11.5135 -155.37 xyz
    dof rx ry rz
  end
  begin
    id 21
    name L_Toe0
    direction -0.35341 0.886259 0.299411
    length 4.75286
    axis 169.316 -17.4222 111.74 xyz
    dof rx ry rz
  end
  begin
    id 22
    name R_ThighDummy
    direction 9.32778e-007 -8.82053e-007 -1
    length 3.13049
    axis 0 0 0 xyz
  end
  begin
    id 23
    name R_Thigh
    direction -0.925064 0.37528 -0.0585023
    length 17.9961
    axis -178.698 3.35385 157.919 xyz
    dof rx ry rz
  end
  begin
    id 24
    name R_Calf
    direction -0.68969 -0.718776 -0.0876886
    length 13.3367
    axis -160.504 5.03065 -133.817 xyz
    dof rx ry rz
  end
  begin
    id 25
    name R_Foot
    direction -0.857405 0.418858 -0.299022
    length 5.8674
    axis -161.328 4.38911 -154.413 xyz
    dof rx ry rz
  end
  begin
    id 26
    name R_Toe0
    direction -0.100745 0.952789 -0.286433
    length 4.75286
    axis 171.683 16.6445 96.0359 xyz
    dof rx ry rz
  end
:hierarchy
  begin
    root SpineDummy L_ThighDummy R_ThighDummy
    SpineDummy Spine
    Spine Spine1
    Spine1 Neck
    Neck HeadDummy R_ClavicleDummy L_ClavicleDummy
    HeadDummy Head
    R_ClavicleDummy R_Clavicle
    R_Clavicle R_UpperArm
    R_UpperArm R_Forearm
    R_Forearm R_Hand
    L_ClavicleDummy L_Clavicle
    L_Clavicle L_UpperArm
    L_UpperArm L_Forearm
    L_Forearm L_Hand
    L_ThighDummy L_Thigh
    L_Thigh L_Calf
    L_Calf L_Foot
    L_Foot L_Toe0
    R_ThighDummy R_Thigh
    R_Thigh R_Calf
    R_Calf R_Foot
    R_Foot R_Toe0
  end

:SAMPLES-PER-SECOND 30
:FULLY-SPECIFIED
:DEGREES
46
root  -3.96988 29.0396 -17.5775 -132.595 -17.9694 80.1065
Spine  5.73103 3.20276 4.17297
Spine1  6.80608 -17.5102 -7.1358
Neck  3.97569e-016 0 -2.38542e-015
Head  12.9416 -5.71496 16.5454
R_Clavicle  0.367931 -9.10498 1.69351
R_UpperArm  3.56017 9.02998 -10.7815
R_Forearm  16.1719 -8.63588 7.21678
R_Hand  -0.957864 6.94392 -18.3983
L_Clavicle  -0.620119 18.541 -3.97141
L_UpperArm  -17.8639 6.88577 47.2421
L_Forearm  23.9037 45.1621 47.0269
L_Hand  0.517834 3.82197 6.44878
L_Thigh  -19.1871 -17.1221 13.9414
L_Calf  8.62147 -1.2572 9.41444
L_Foot  1.5337 10.1891 -3.15974
L_Toe0  0.545516 0.0351141 -6.10093
R_Thigh  32.5966 2.85665 2.34141
R_Calf  1.88439 -1.31457 -4.099
R_Foot  0.994745 -3.65288 -14.1736
R_Toe0  -22.5008 9.66738 5.33087
47
root  -3.88168 27.9809 -18.4025 -142.498 -19.8732 82.7936
Spine  8.6048 5.03515 5.96282
Spine1  9.63971 -23.348 -7.40558
Neck  3.97569e-016 0 -2.38542e-015
Head  15.7381 -4.23362 14.4002
R_Clavicle  0.460467 -6.18443 2.41377
R_UpperArm  4.97258 11.6869 -18.911
R_Forearm  17.5969 -8.18529 6.83065
R_Hand  -1.21116 6.70515 -20.4609
L_Clavicle  -0.570677 18.2333 -2.57258
L_UpperArm  -18.4484 9.38167 54.6205
L_Forearm  18.2456 44.2195 48.7393
L_Hand  0.372274 2.58959 5.31292
L_Thigh  -15.8522 -17.7485 15.8385
L_Calf  -2.57733 -0.0761244 0.874501
L_Foot  4.13686 11.9771 4.17795
L_Toe0  0.495829 0.0345513 -6.14435
R_Thigh  36.8452 1.70901 -0.0661391
R_Calf  1.017 -2.75232 -8.58184
R_Foot  0.713558 -4.91169 -13.6593
R_Toe0  -22.7654 12.1551 9.65368
48
root  -3.8101 27.0355 -19.1085 -149.593 -22.1323 85.0955
Spine  10.5648 6.55627 7.07732
Spine1  11.1203 -27.9194 -6.03262
Neck  3.97569e-016 0 -2.38542e-015
Head  18.3542 -3.62767 12.4776
R_Clavicle  0.516903 -3.80531 2.72526
R_UpperArm  6.6261 14.5538 -25.2376
R_Forearm  21.263 -10.5496 8.86934
R_Hand  -1.39411 6.10106 -22.0983
L_Clavicle  -0.499334 17.3617 -0.577058
L_UpperArm  -19.163 11.1195 58.2722
L_Forearm  15.8823 43.7714 51.0539
L_Hand  0.295019 1.23937 4.96934
L_Thigh  -14.5912 -18.2666 16.7335
L_Calf  -9.43287 1.01905 -6.96426
L_Foot  3.39219 4.99887 8.53347
L_Toe0  0.505156 0.0345937 -6.1361
R_Thigh  38.9816 -1.45393 -2.56203
R_Calf  0.662763 -4.53686 -14.235
R_Foot  0.681031 -2.08749 -9.61107
R_Toe0  -23.2748 13.7032 11.7678
49
root  -3.88768 26.6268 -19.4345 -152.943 -23.7871 86.1025
Spine  11.7482 7.58793 7.05201
Spine1  11.7601 -30.1705 -4.50168
Neck  3.97569e-016 0 -2.38542e-015
Head  19.4922 -3.92398 12.7747
R_Clavicle  0.534426 -2.47588 2.79011
R_UpperArm  7.06856 16.1293 -27.0975
R_Forearm  24.3339 -14.3727 12.263
R_Hand  -1.32523 5.83597 -21.4862
L_Clavicle  -0.459916 16.3693 1.01807
L_UpperArm  -20.555 12.0368 58.3343
L_Forearm  18.1732 43.3623 52.9671
L_Hand  0.270254 0.0760311 5.44172
L_Thigh  -14.9547 -19.3376 16.9787
L_Calf  -12.1378 1.36136 -9.51935
L_Foot  2.92773 2.78337 9.63336
L_Toe0  0.505156 0.0346868 -6.1361
R_Thigh  38.104 -4.98469 -3.65738
R_Calf  -4.18259 -5.9919 -18.9684
R_Foot  1.6248 4.04895 -5.98755
R_Toe0  -26.3211 14.0779 9.51577
50
root  -4.16043 26.8669 -19.2006 -152.496 -23.7376 85.5432
Spine  12.2621 8.16254 6.3378
Spine1  12.206 -29.6804 -4.84059
Neck  3.97569e-016 0 -2.38542e-015
Head  19.0804 -4.25257 15.256
R_Clavicle  0.519182 -2.84507 2.71209
R_UpperArm  4.25105 15.4015 -23.7719
R_Forearm  23.8933 -17.9507 15.5892
R_Hand  -1.04938 6.18656 -19.0398
L_Clavicle  -0.452101 15.9827 1.56476
L_UpperArm  -21.3798 12.2747 56.5909
L_Forearm  20.2042 42.5916 51.9783
L_Hand  0.236496 -0.357886 5.11649
L_Thigh  -15.01 -19.5434 17.2919
L_Calf  -12.0341 1.04953 -7.22225
L_Foot  2.73393 3.70213 7.62593
L_Toe0  0.505156 0.0347595 -6.13609
R_Thigh  34.6877 -6.60229 -3.11364
R_Calf  -9.58813 -6.4426 -20.4692
R_Foot  2.46817 7.93658 -3.96839
R_Toe0  -27.8088 13.2523 7.03818
51
root  -4.61347 27.6573 -18.3992 -148.205 -22.1208 83.5899
Spine  11.6557 8.36125 5.27473
Spine1  11.8845 -27.1971 -6.49924
Neck  3.97569e-016 0 -2.38542e-015
Head  17.811 -4.30695 17.8714
R_Clavicle  0.429365 -4.96034 2.19895
R_UpperArm  -1.77774 13.0654 -16.2608
R_Forearm  20.4427 -20.6073 18.2431
R_Hand  -0.698188 6.67707 -16.1412
L_Clavicle  -0.459083 16.3787 1.20285
L_UpperArm  -20.8408 11.666 53.3652
L_Forearm  18.8597 41.7096 48.1009
L_Hand  0.163417 -0.0590517 3.3427
L_Thigh  -14.2941 -19.2948 17.1003
L_Calf  -9.26958 0.0902925 -0.229188
L_Foot  2.50959 7.48666 2.76012
L_Toe0  0.505156 0.0348134 -6.13609
R_Thigh  30.8123 -6.28752 -1.97432
R_Calf  -7.83643 -5.7598 -18.2153
R_Foot  2.24288 7.39983 -1.9427
R_Toe0  -25.2927 11.8887 7.04086
52
root  -5.15713 28.7301 -17.1859 -140.564 -19.6598 80.8966
Spine  9.87645 8.3109 3.39282
Spine1  10.1672 -23.3993 -6.97058
Neck  3.97569e-016 0 -2.38542e-015
Head  15.8525 -4.91229 18.9896
R_Clavicle  0.297652 -7.81813 1.19013
R_UpperArm  -6.87009 10.5115 -5.95222
R_Forearm  16.9165 -23.075 20.0348
R_Hand  -0.368771 7.01891 -13.5407
L_Clavicle  -0.478775 17.025 0.386099
L_UpperArm  -19.1209 10.0987 47.2309
L_Forearm  15.8753 40.8195 44.013
L_Hand  0.0686139 0.457451 1.32429
L_Thigh  -14.7598 -18.895 16.1297
L_Calf  0.00778553 -1.26604 10.5376
L_Foot  1.10353 10.2945 -5.24995
L_Toe0  0.505156 0.0348502 -6.13609
R_Thigh  27.6596 -5.44796 -1.31703
R_Calf  1.14956 -4.40087 -13.8173
R_Foot  1.28509 4.55221 0.461658
R_Toe0  -14.6723 7.18992 7.43408
53
root  -5.63989 29.6465 -15.8182 -131.586 -16.789 78.5387
Spine  7.72588 7.82122 0.745245
Spine1  7.80271 -18.4533 -5.84176
Neck  3.97569e-016 0 -2.38542e-015
Head  13.062 -6.1822 18.7817
R_Clavicle  0.216635 -10.4988 0.214093
R_UpperArm  -4.59835 8.04108 5.61917
R_Forearm  13.4925 -27.5313 19.9617
R_Hand  -0.165989 7.32025 -12.0647
L_Clavicle  -0.48656 16.9896 -0.528207
L_UpperArm  -15.5749 8.38745 38.1696
L_Forearm  12.5345 39.4403 41.1779
L_Hand  0.0217478 0.936913 0.438461
L_Thigh  -16.3327 -16.3425 15.0585
L_Calf  15.315 -3.63125 21.254
L_Foot  -3.16579 -3.28877 -14.4277
L_Toe0  0.505156 0.0348714 -6.13609
R_Thigh  23.8896 -4.42377 -1.34197
R_Calf  11.1131 -3.17671 -9.93462
R_Foot  -0.0263081 0.787948 2.41488
R_Toe0  -2.60438 1.10497 3.01668
54
root  -6.04874 30.1989 -14.4666 -123.288 -14.5268 76.5986
Spine  5.54512 5.81218 -1.06778
Spine1  5.64517 -13.066 -5.29672
Neck  3.97569e-016 0 -2.38542e-015
Head  10.1153 -7.02796 17.9702
R_Clavicle  0.214497 -13.2377 -0.383705
R_UpperArm  4.64293 5.38059 16.9867
R_Forearm  8.63897 -34.4673 19.1722
R_Hand  -0.179384 7.60377 -12.3434
L_Clavicle  -0.454563 16.0466 -1.23588
L_UpperArm  -9.52376 7.21395 28.8223
L_Forearm  7.70727 36.4465 38.6513
L_Hand  0.0439244 1.65286 0.786594
L_Thigh  -9.72108 -13.8203 13.4198
L_Calf  17.8554 -9.48962 31.6781
L_Foot  -5.44749 -19.6333 -16.4585
L_Toe0  0.505156 0.0348788 -6.13609
R_Thigh  17.7503 -3.68808 -1.7417
R_Calf  16.9306 -2.57621 -8.06311
R_Foot  -1.02289 -2.69999 1.72892
R_Toe0  4.94575 -1.78334 1.56191
55
root  -6.3913 30.3535 -13.1629 -115.92 -13.0396 74.799
Spine  3.04786 2.80992 -1.39142
Spine1  3.30262 -8.2874 -5.93653
Neck  3.97569e-016 0 -2.38542e-015
Head  7.9911 -6.98973 16.2327
R_Clavicle  0.282358 -16.9284 -0.721452
R_UpperArm  16.4894 3.40319 27.5814
R_Forearm  0.556436 -42.2781 20.4052
R_Hand  -0.359917 7.80152 -13.8665
L_Clavicle  -0.43092 15.511 -1.6114
L_UpperArm  0.106624 5.27705 21.3705
L_Forearm  -0.382369 30.6816 36.1777
L_Hand  0.0812958 2.62321 1.23827
L_Thigh  -0.561936 -12.6616 13.8363
L_Calf  8.19482 -11.8031 35.944
L_Foot  -4.48955 -15.6761 -9.00198
L_Toe0  0.505156 0.034874 -6.13609
R_Thigh  11.4478 -3.50851 -2.93205
R_Calf  16.7539 -2.19555 -6.88044
R_Foot  -0.895328 -2.69799 0.924381
R_Toe0  6.82104 -2.81003 7.14033
56
root  -6.56989 30.1372 -11.9895 -109.579 -11.4499 74.269
Spine  0.602306 0.733399 -1.8254
Spine1  0.713859 -3.71196 -5.54585
Neck  3.97569e-016 0 -2.38542e-015
Head  7.03526 -6.76461 12.3056
R_Clavicle  0.402647 -21.5151 -0.910305
R_UpperArm  26.701 3.42946 37.4032
R_Forearm  -6.79874 -48.0881 24.9475
R_Hand  -0.613448 8.12952 -15.9628
L_Clavicle  -0.494088 16.9013 -1.74968
L_UpperArm  6.08291 0.746004 15.1075
L_Forearm  -5.92473 25.4094 33.5802
L_Hand  0.0250657 3.21711 0.458229
L_Thigh  -0.197335 -9.04973 13.8028
L_Calf  -0.268576 -10.7035 37.4823
L_Foot  -2.59147 -7.38388 -5.20241
L_Toe0  0.505156 0.0348586 -6.13609
R_Thigh  9.23712 -2.63657 -5.18069
R_Calf  13.8649 -1.35008 -4.20173
R_Foot  -0.677731 0.435636 7.23256
R_Toe0  3.02091 -1.20933 6.94216
